<svg xmlns="http://www.w3.org/2000/svg" xmlns:xlink="http://www.w3.org/1999/xlink" width="56" height="57" viewBox="0 0 56 57"><defs><path id="5xqta" d="M1342.96 814.363v13.084h34.08v-13.084a14.663 14.663 0 0 0 9.736-13.843c0-8.115-6.536-14.687-14.605-14.687-.426 0-.828.012-1.242.049-2.677-3.036-6.572-4.945-10.929-4.945s-8.252 1.91-10.93 4.945a13.906 13.906 0 0 0-1.24-.05c-8.07 0-14.606 6.573-14.606 14.688a14.663 14.663 0 0 0 9.737 13.843z"/><path id="5xqtb" d="M1346.633 787.078a15.79 15.79 0 0 0-2.46 8.461c0 8.726 7.1 15.826 15.827 15.826a1.217 1.217 0 1 0 0-2.434c-7.383 0-13.391-6.008-13.391-13.392 0-3.29 1.195-6.442 3.37-8.882a13.403 13.403 0 0 1 10.021-4.51c3.828 0 7.48 1.645 10.023 4.511a13.323 13.323 0 0 1 3.368 8.881 1.217 1.217 0 1 0 2.435 0c0-3.026-.868-5.952-2.46-8.46 6.827.605 12.2 6.348 12.2 13.33 0 5.67-3.587 10.741-8.935 12.623-1.416.51-2.916.768-4.457.768a1.217 1.217 0 1 0 0 2.435c1.245 0 2.467-.155 3.652-.437v10.176h-31.652v-10.176a15.76 15.76 0 0 0 3.652.437 1.217 1.217 0 1 0 0-2.435c-1.541 0-3.041-.258-4.465-.77-5.34-1.88-8.926-6.952-8.926-12.621 0-6.982 5.372-12.725 12.198-13.33zm29.193 46.2h-31.652v-4.87h31.652zm-34.087-18.275v19.493c0 .671.544 1.217 1.218 1.217h34.086c.674 0 1.218-.545 1.218-1.217v-19.493a15.826 15.826 0 0 0 9.739-14.594c0-8.726-7.1-15.826-15.826-15.826-.272 0-.526.006-.766.018a15.827 15.827 0 0 0-11.408-4.888c-4.322 0-8.442 1.79-11.42 4.9-.252-.01-.503-.03-.754-.03-8.726 0-15.826 7.1-15.826 15.826 0 6.41 3.885 12.164 9.74 14.594z"/><linearGradient id="5xqtc" x1="1360" x2="1360" y1="779.71" y2="835.71" gradientUnits="userSpaceOnUse"><stop offset="0" stop-color="#8c53ff"/><stop offset="1" stop-color="#70a4ff"/></linearGradient></defs><g><g transform="translate(-1332 -779)"><g><use fill="#dbe6ff" xlink:href="#5xqta"/></g><g><use fill="url(#5xqtc)" xlink:href="#5xqtb"/></g></g></g></svg>