<svg xmlns="http://www.w3.org/2000/svg" xmlns:xlink="http://www.w3.org/1999/xlink" width="32" height="32" viewBox="0 0 32 32"><defs><path id="hnrpa" d="M1429.156 4057.994c-7.713 0-13.988-6.274-13.988-13.987s6.275-13.987 13.988-13.987c7.712 0 13.987 6.274 13.987 13.987s-6.275 13.987-13.987 13.987zm11.203-25.19a15.74 15.74 0 0 0-11.203-4.64 15.74 15.74 0 0 0-11.204 4.64 15.74 15.74 0 0 0-4.64 11.203 15.74 15.74 0 0 0 4.64 11.204 15.74 15.74 0 0 0 11.204 4.64 15.74 15.74 0 0 0 11.203-4.64 15.74 15.74 0 0 0 4.64-11.204 15.74 15.74 0 0 0-4.64-11.203z"/><path id="hnrpb" d="M1430.15 4043.079h-1.989a2.057 2.057 0 0 1-2.054-2.055c0-1.133.921-2.055 2.054-2.055h3.978a.928.928 0 0 0 0-1.856h-2.055v-2.055a.928.928 0 0 0-1.857 0v2.055h-.066a3.916 3.916 0 0 0-3.911 3.911 3.916 3.916 0 0 0 3.911 3.911h1.99c1.132 0 2.054.922 2.054 2.055a2.057 2.057 0 0 1-2.055 2.055h-3.977a.928.928 0 0 0 0 1.857h2.054v2.055a.928.928 0 0 0 1.857 0v-2.055h.066a3.916 3.916 0 0 0 3.912-3.912 3.916 3.916 0 0 0-3.912-3.911z"/></defs><g><g transform="translate(-1413 -4028)"><g><g><g><use fill="#53f3c8" xlink:href="#hnrpa"/></g></g></g><g><g><g><use fill="#53f3c8" xlink:href="#hnrpb"/></g></g></g></g></g></svg>