<svg xmlns="http://www.w3.org/2000/svg" xmlns:xlink="http://www.w3.org/1999/xlink" width="46" height="70" viewBox="0 0 46 70"><defs><path id="9mqja" d="M546.349 807.922l-3.452 1.511a7.622 7.622 0 0 0-4.566 6.983v13.447l13.404-6.517z"/><path id="9mqjb" d="M573.651 807.922l3.453 1.511a7.622 7.622 0 0 1 4.565 6.983v13.447l-13.404-6.517z"/><path id="9mqjc" d="M560 825.3h5.867s8.088-7.719 8.088-23.44c0-18.436-13.955-27.53-13.955-27.53s-13.955 9.094-13.955 27.531c0 15.72 8.088 23.438 8.088 23.438z"/><path id="9mqjd" d="M549.482 787.505h21.036c-4.004-8.81-10.518-13.174-10.518-13.174s-6.514 4.365-10.518 13.174z"/><path id="9mqje" d="M552.548 802.472a7.452 7.452 0 1 1 14.904 0 7.452 7.452 0 0 1-14.904 0z"/><path id="9mqjg" d="M554.883 802.48a5.117 5.117 0 1 1 10.234 0 5.117 5.117 0 0 1-10.234 0z"/><path id="9mqjh" d="M568.656 819.663c-1.395 2.801-2.806 4.579-3.445 5.314h-3.858v-5.519c0-.75-.606-1.357-1.353-1.357s-1.353.608-1.353 1.357v5.52h-3.859c-1.501-1.725-7.239-9.194-7.239-22.546 0-4.71.882-9.152 2.628-13.282H569.8c1.523 3.617 2.652 8.058 2.652 13.282 0 7.947-2.064 13.757-3.795 17.231zm-28.95 8.302v-11.544a6.417 6.417 0 0 1 3.831-5.877l1.879-.825c.79 4.908 2.268 8.697 3.572 11.288a33 33 0 0 0 1.048 1.92zm14.415-45.725c2.341-3.189 4.71-5.26 5.88-6.19 1.158.917 3.483 2.949 5.814 6.103a34.028 34.028 0 0 1 2.695 4.283h-17.036a34.729 34.729 0 0 1 2.647-4.196zm23.427 25.817l-2.604-1.143c.136-1.416.213-2.91.213-4.482 0-10.083-3.898-17.472-7.168-21.896-3.55-4.802-7.087-7.206-7.236-7.306a1.35 1.35 0 0 0-1.506 0c-.149.1-3.686 2.504-7.236 7.306-3.27 4.424-7.168 11.813-7.168 21.896 0 1.572.077 3.066.213 4.482l-2.604 1.143a9.131 9.131 0 0 0-5.452 8.364v13.713a1.358 1.358 0 0 0 1.353 1.357c.202 0 .404-.045.592-.136l12.585-6.138c.972 1.343 1.669 2.037 1.719 2.086.253.249.593.388.947.388h4.451v2.443c0 .75.606 1.357 1.353 1.357s1.353-.607 1.353-1.357v-2.443h4.45c.355 0 .695-.139.948-.388.05-.049.747-.743 1.72-2.086l12.584 6.138a1.347 1.347 0 0 0 1.31-.07c.395-.248.635-.683.635-1.15v-2.082c0-.07-.005-.138-.015-.205.01-.067.015-.135.015-.205v-11.222c0-3.627-2.14-6.91-5.452-8.364zm2.749 19.91l-10.333-5.04c.343-.582.696-1.221 1.048-1.92 1.304-2.591 2.782-6.38 3.573-11.288l1.878.824a6.417 6.417 0 0 1 3.831 5.878v11.222c0 .07.005.138.015.205-.005.04-.01.079-.012.119z"/><path id="9mqjj" d="M573.903 834.278c-.662 0-1.302.095-1.908.27a7.312 7.312 0 0 0-6.054-3.178 7.314 7.314 0 0 0-5.932 3.014 7.314 7.314 0 0 0-5.933-3.014 7.312 7.312 0 0 0-6.054 3.177 6.879 6.879 0 0 0-1.908-.27c-3.742 0-6.786 2.99-6.786 6.663 0 .735.607 1.33 1.356 1.33.748 0 1.355-.595 1.355-1.33 0-2.206 1.828-4 4.075-4s4.075 1.794 4.075 4c0 .735.607 1.33 1.355 1.33.749 0 1.356-.595 1.356-1.33 0-2.063-.96-3.909-2.464-5.132a4.594 4.594 0 0 1 3.64-1.776c2.519 0 4.568 2.011 4.568 4.484 0 .735.607 1.33 1.355 1.33h.019c.749 0 1.355-.595 1.355-1.33 0-2.473 2.05-4.484 4.568-4.484 1.452 0 2.788.673 3.64 1.776-1.504 1.223-2.464 3.07-2.464 5.132 0 .735.607 1.33 1.356 1.33.748 0 1.355-.595 1.355-1.33 0-2.206 1.828-4 4.075-4s4.075 1.794 4.075 4c0 .735.607 1.33 1.356 1.33.748 0 1.355-.595 1.355-1.33 0-3.674-3.044-6.662-6.786-6.662z"/><linearGradient id="9mqjf" x1="560" x2="560" y1="795.02" y2="809.92" gradientUnits="userSpaceOnUse"><stop offset="0" stop-color="#8c53ff"/><stop offset="1" stop-color="#70a4ff"/></linearGradient><linearGradient id="9mqji" x1="560" x2="588.74" y1="773" y2="831.49" gradientUnits="userSpaceOnUse"><stop offset="0" stop-color="#8c53ff"/><stop offset="1" stop-color="#70a4ff"/></linearGradient><linearGradient id="9mqjk" x1="560.01" x2="560.01" y1="831.37" y2="842.27" gradientUnits="userSpaceOnUse"><stop offset="0" stop-color="#8c53ff"/><stop offset="1" stop-color="#70a4ff"/></linearGradient></defs><g><g transform="translate(-537 -773)"><g><g><use fill="#dbe6ff" xlink:href="#9mqja"/></g><g><use fill="#dbe6ff" xlink:href="#9mqjb"/></g></g><g><use fill="#dbe6ff" xlink:href="#9mqjc"/></g><g><use fill="#dbe6ff" xlink:href="#9mqjd"/></g><g><use fill="url(#9mqjf)" xlink:href="#9mqje"/></g><g><use fill="#fff" xlink:href="#9mqjg"/></g><g><use fill="url(#9mqji)" xlink:href="#9mqjh"/></g><g><use fill="url(#9mqjk)" xlink:href="#9mqjj"/></g></g></g></svg>