<svg xmlns="http://www.w3.org/2000/svg" xmlns:xlink="http://www.w3.org/1999/xlink" width="120" height="34" viewBox="0 0 120 34"><defs><path id="5c7ya" d="M376.497 69.478c7.95-.831 11.818-8.536 11.818-14.504v-.586a4.607 4.607 0 1 1 0-9.156V36.53h-8.018v18.404c0 7.706-3.972 9.035-5.297 9.497l1.497 5.048zm11.302-22.739a3.071 3.071 0 1 1 0 6.142 3.071 3.071 0 0 1 0-6.142z"/><path id="5c7yb" d="M481.997 50.104c.356-2.096 1.564-3.482 3.34-3.482 1.847 0 3.09 1.35 3.34 3.482zm3.908 11.652c3.837 0 6.502-1.563 8.349-3.908l-2.815-2.379c-2.165 2.11-7.894 3.366-9.335-1.92h12.86c.036-.461.036-.958.036-1.385 0-5.648-3.055-10.515-9.698-10.515-5.685 0-9.7 4.44-9.7 10.053 0 6.04 4.264 10.054 10.303 10.054zm-25.556-.462h6.75v-5.968c0-4.44 1.99-6.466 5.507-6.466h.568v-7.105c-3.197-.142-4.973 1.563-6.075 4.192v-3.872h-6.75zm-14.614-5.257c-2.38 0-4.085-1.99-4.085-4.335 0-2.38 1.563-4.334 4.014-4.334 2.38 0 4.086 1.99 4.086 4.334 0 2.38-1.563 4.335-4.014 4.335zm-.07 5.72c6.181 0 10.657-4.584 10.657-10.055 0-5.542-4.44-10.053-10.587-10.053-6.181 0-10.657 4.582-10.657 10.053 0 5.542 4.44 10.054 10.586 10.054zm-18.132-.072c1.883 0 3.482-.426 4.69-1.101V55.29c-.817.39-1.67.64-2.558.64-1.243 0-1.847-.57-1.847-1.92v-6.5h4.476v-5.436h-4.476v-4.867l-6.75 2.77v2.097h-2.274v5.435h2.274v7.816c0 4.583 2.415 6.36 6.465 6.36zm-21.47.036c6.04 0 10.054-3.02 10.054-8.1 0-4.725-3.553-6.572-9.272-7.816-3.446-.781-4.299-1.279-4.299-2.416 0-.959.817-1.67 2.487-1.67 2.202 0 4.69.853 6.963 2.452l3.446-4.867c-2.7-2.167-6.004-3.304-10.232-3.304-5.968 0-9.627 3.34-9.627 7.958 0 5.187 4.085 6.679 9.379 7.886 3.375.782 4.192 1.35 4.192 2.38 0 1.138-.995 1.777-2.842 1.777-2.878 0-5.613-1.03-8.065-2.984L394.41 57.6c3.056 2.735 7.248 4.12 11.653 4.12z"/></defs><g><g transform="translate(-375 -36)"><g><use fill="#c4f300" xlink:href="#5c7ya"/></g><g><use fill="#fff" xlink:href="#5c7yb"/></g></g></g></svg>