<svg xmlns="http://www.w3.org/2000/svg" xmlns:xlink="http://www.w3.org/1999/xlink" width="30" height="30" viewBox="0 0 30 30"><defs><path id="q7noa" d="M1441.538 2224.535a24.55 24.55 0 0 0-22.833-.003l-.926-1.605a26.443 26.443 0 0 1 12.369-3.077 26.28 26.28 0 0 1 12.316 3.08zm-14.195 14.958a3.427 3.427 0 0 0 2-3.112 3.427 3.427 0 0 0-3.423-3.423c-.72 0-1.412.23-1.983.635l-4.306-7.458a22.697 22.697 0 0 1 20.98.003l-10.489 18.169zm-.934-1.618l-1.538-2.664a1.577 1.577 0 0 1 1.05-.403c.866 0 1.572.706 1.572 1.573 0 .696-.456 1.288-1.084 1.494zm17.79-16.099a28.145 28.145 0 0 0-14.051-3.776c-4.944 0-9.82 1.304-14.104 3.772l-.816.476.484.8 14.41 24.96 14.878-25.77z"/><path id="q7nob" d="M1433.205 2230.43a1.574 1.574 0 0 1-1.572-1.572c0-.868.705-1.573 1.572-1.573.868 0 1.573.705 1.573 1.573 0 .867-.706 1.572-1.573 1.572zm0-4.995a3.427 3.427 0 0 0-3.423 3.423 3.427 3.427 0 0 0 3.423 3.423 3.427 3.427 0 0 0 3.423-3.423 3.427 3.427 0 0 0-3.423-3.423z"/><path id="q7noc" d="M1424.484 2228.924v-2.468h1.85v2.468z"/><path id="q7nod" d="M1431.135 2236.103v-2.467h1.85v2.467z"/></defs><g><g transform="translate(-1415 -2218)"><g><use fill="#ffbd67" xlink:href="#q7noa"/></g><g><use fill="#ffbd67" xlink:href="#q7nob"/></g><g><use fill="#ffbd67" xlink:href="#q7noc"/></g><g><use fill="#ffbd67" xlink:href="#q7nod"/></g></g></g></svg>