<svg xmlns="http://www.w3.org/2000/svg" xmlns:xlink="http://www.w3.org/1999/xlink" width="32" height="32" viewBox="0 0 32 32"><defs><path id="tem2a" d="M497.44 4058.955l1.185 6.905a.407.407 0 0 1-.167.409.408.408 0 0 1-.44.032l-6.201-3.26a2.09 2.09 0 0 0-1.945 0l-6.202 3.26a.407.407 0 0 1-.44-.032.407.407 0 0 1-.166-.409l1.184-6.905a2.09 2.09 0 0 0-.6-1.85l-5.018-4.89a.407.407 0 0 1-.106-.43.407.407 0 0 1 .338-.284l6.933-1.007a2.09 2.09 0 0 0 1.574-1.143l3.1-6.283a.407.407 0 0 1 .375-.233c.078 0 .271.023.375.233l3.1 6.283a2.09 2.09 0 0 0 1.574 1.143l6.934 1.007c.232.034.313.21.337.285a.407.407 0 0 1-.106.428l-5.017 4.89a2.09 2.09 0 0 0-.6 1.85zm6.785-5.544c.574-.559.777-1.38.529-2.142a2.077 2.077 0 0 0-1.687-1.422l-6.933-1.008a.418.418 0 0 1-.315-.228l-3.1-6.283a2.077 2.077 0 0 0-1.875-1.165c-.801 0-1.52.446-1.874 1.165l-3.1 6.283a.418.418 0 0 1-.315.229l-6.934 1.007c-.793.115-1.439.66-1.687 1.422a2.077 2.077 0 0 0 .53 2.142l5.016 4.89a.418.418 0 0 1 .12.37l-1.184 6.906c-.135.79.183 1.573.831 2.044a2.077 2.077 0 0 0 2.201.16l6.202-3.26a.418.418 0 0 1 .389 0l6.201 3.26a2.08 2.08 0 0 0 2.2-.16 2.077 2.077 0 0 0 .832-2.044l-1.184-6.905a.418.418 0 0 1 .12-.37z"/><path id="tem2b" d="M500.61 4042.328a.836.836 0 0 0-1.168.184l-.888 1.222a.836.836 0 1 0 1.353.982l.887-1.22a.836.836 0 0 0-.185-1.168z"/><path id="tem2c" d="M483.13 4043.729l-.887-1.221a.836.836 0 0 0-1.353.982l.888 1.221a.835.835 0 0 0 1.167.185.836.836 0 0 0 .185-1.167z"/><path id="tem2d" d="M478.067 4059.917a.836.836 0 0 0-1.053-.537l-1.436.467a.836.836 0 0 0 .517 1.59l1.435-.467a.836.836 0 0 0 .537-1.053z"/><path id="tem2e" d="M490.844 4069.198a.836.836 0 0 0-.836.836v1.51a.836.836 0 0 0 1.672 0v-1.51a.836.836 0 0 0-.836-.836z"/><path id="tem2f" d="M506.11 4059.848l-1.435-.466a.836.836 0 0 0-.517 1.59l1.436.466a.837.837 0 1 0 .516-1.59z"/></defs><g><g transform="translate(-475 -4041)"><g><g><g><use fill="#946eff" xlink:href="#tem2a"/></g></g></g><g><g><g><use fill="#946eff" xlink:href="#tem2b"/></g></g></g><g><g><g><use fill="#946eff" xlink:href="#tem2c"/></g></g></g><g><g><g><use fill="#946eff" xlink:href="#tem2d"/></g></g></g><g><g><g><use fill="#946eff" xlink:href="#tem2e"/></g></g></g><g><g><g><use fill="#946eff" xlink:href="#tem2f"/></g></g></g></g></g></svg>