<svg xmlns="http://www.w3.org/2000/svg" xmlns:xlink="http://www.w3.org/1999/xlink" width="24" height="30" viewBox="0 0 24 30"><defs><path id="wxi7a" d="M457.774 2554.085v-2.467h1.85v2.467z"/><path id="wxi7b" d="M461.228 2550.056v-2.467h1.85v2.467z"/><path id="wxi7c" d="M456.707 2557.063c-5.435 0-9.857-4.422-9.857-9.857s4.422-9.857 9.857-9.857 9.857 4.422 9.857 9.857-4.422 9.857-9.857 9.857zm6.602-25.962c1.065 0 2.082.311 2.828.842-.746.53-1.763.841-2.828.841-1.064 0-2.08-.31-2.827-.841.746-.53 1.763-.842 2.827-.842zm-5.677 4.434v-2.667h1.088c1.104 1.113 2.784 1.767 4.59 1.767 1.981 0 3.81-.787 4.894-2.105l.483-.587-.483-.588c-1.083-1.317-2.913-2.104-4.894-2.104-1.806 0-3.486.654-4.59 1.767h-1.088V2529h-1.85v6.535c-6.025.473-10.782 5.527-10.782 11.67 0 6.456 5.252 11.708 11.707 11.708 6.456 0 11.708-5.252 11.708-11.707 0-6.144-4.758-11.198-10.783-11.671z"/></defs><g><g transform="translate(-445 -2529)"><g><use fill="#ff4b76" xlink:href="#wxi7a"/></g><g><use fill="#ff4b76" xlink:href="#wxi7b"/></g><g><use fill="#ff4b76" xlink:href="#wxi7c"/></g></g></g></svg>