<svg xmlns="http://www.w3.org/2000/svg" xmlns:xlink="http://www.w3.org/1999/xlink" width="31" height="27" viewBox="0 0 31 27"><defs><path id="6uria" d="M1519.323 2583.766c-.487-.16-1.085-.275-1.901-.275-1.459 0-2.223.37-2.897.697-.59.285-1.055.511-2.089.511s-1.5-.226-2.089-.511c-.674-.327-1.437-.697-2.896-.697-1.459 0-2.223.37-2.896.697-.59.285-1.056.511-2.09.511-1.034 0-1.5-.226-2.089-.511-.674-.327-1.437-.697-2.896-.697-.817 0-1.415.116-1.902.275v-2.015h23.745v2.015zm-23.745 4.523v-2.527c.509-.241.98-.421 1.902-.421 1.034 0 1.5.226 2.089.512.674.326 1.438.697 2.896.697 1.46 0 2.223-.37 2.897-.697.59-.286 1.055-.512 2.089-.512s1.5.226 2.09.512c.673.326 1.437.697 2.895.697 1.46 0 2.223-.37 2.897-.697.59-.286 1.055-.512 2.089-.512.922 0 1.392.18 1.901.421v2.527zm3.5 5.658a4.741 4.741 0 0 1-4.643-3.808h26.031a4.741 4.741 0 0 1-4.642 3.808zm1.048-17.854v1.92h1.85v-1.92h4.55v1.92h1.85v-1.92h4.548v1.92h1.85v-1.92h1.05a4.741 4.741 0 0 1 4.642 3.808h-26.031a4.741 4.741 0 0 1 4.642-3.808zm22.281 5.658v-.925a6.591 6.591 0 0 0-6.583-6.583h-7.448V2569h-1.85v5.243h-7.449a6.591 6.591 0 0 0-6.583 6.583v.925h1.233v2.793c-.324.096-.704.155-1.233.155v1.85c.479 0 .883-.04 1.233-.105v1.845h-1.233v.925a6.591 6.591 0 0 0 6.583 6.584h16.747a6.591 6.591 0 0 0 6.583-6.584v-.925h-1.233v-1.845c.35.065.754.106 1.233.106v-1.85c-.53 0-.91-.06-1.233-.156v-2.793z"/></defs><g><g transform="translate(-1492 -2569)"><g><use fill="#53f3c8" xlink:href="#6uria"/></g></g></g></svg>