<svg xmlns="http://www.w3.org/2000/svg" xmlns:xlink="http://www.w3.org/1999/xlink" width="32" height="25" viewBox="0 0 32 25"><defs><path id="gltpa" d="M1474.043 4382.01h-20.527a1.135 1.135 0 0 1-1.134-1.134v-11.87c0-.594.46-1.082 1.041-1.13h16.639a.751.751 0 0 0 .082-.004h3.898c.626 0 1.134.508 1.134 1.134v11.87c0 .625-.508 1.133-1.133 1.133zm-27.531-15.645v-1.99h22.794v1.985h-15.79c-.052 0-.102.002-.153.005zm4.358 8.447h-3.225a1.135 1.135 0 0 1-1.133-1.134v-5.802h4.612a2.629 2.629 0 0 0-.254 1.13zm-4.358-13.003c0-.626.508-1.134 1.133-1.134h20.528c.625 0 1.133.508 1.133 1.134v1.055h-22.794zm27.53 4.551h-3.224v-4.551a2.648 2.648 0 0 0-2.645-2.646h-20.528a2.649 2.649 0 0 0-2.645 2.646v11.87a2.648 2.648 0 0 0 2.645 2.645h3.225v4.552a2.648 2.648 0 0 0 2.646 2.645h20.527a2.648 2.648 0 0 0 2.645-2.645v-11.87a2.648 2.648 0 0 0-2.645-2.646z"/><path id="gltpb" d="M1466.056 4377.072a2.134 2.134 0 0 1-2.132-2.131c0-1.176.956-2.132 2.132-2.132 1.175 0 2.132.956 2.132 2.132a2.134 2.134 0 0 1-2.132 2.131zm-3.234-.457a2.135 2.135 0 0 1-3.452-1.675 2.135 2.135 0 0 1 3.452-1.674 3.62 3.62 0 0 0 0 3.35zm3.234-5.318c-.86 0-1.65.3-2.274.8a3.618 3.618 0 0 0-2.28-.8 3.648 3.648 0 0 0-3.644 3.644 3.648 3.648 0 0 0 3.644 3.643c.843 0 1.64-.285 2.28-.8.623.5 1.414.8 2.274.8a3.648 3.648 0 0 0 3.643-3.643 3.648 3.648 0 0 0-3.643-3.644z"/></defs><g><g transform="translate(-1445 -4359)"><g><g><g><use fill="#ff4b76" xlink:href="#gltpa"/></g></g></g><g><g><g><use fill="#ff4b76" xlink:href="#gltpb"/></g></g></g></g></g></svg>