<svg xmlns="http://www.w3.org/2000/svg" xmlns:xlink="http://www.w3.org/1999/xlink" width="24" height="32" viewBox="0 0 24 32"><defs><path id="ujqpa" d="M1373.68 4225.21c0 .728-.593 1.32-1.321 1.32h-18.485c-.728 0-1.32-.592-1.32-1.32v-26.406c0-.728.592-1.32 1.32-1.32h13.204v3.96a2.644 2.644 0 0 0 2.64 2.641h3.961zm-5.282-26.793l4.348 4.348h-3.028c-.728 0-1.32-.593-1.32-1.32zm6.408 4.541l-6.601-6.601a.66.66 0 0 0-.467-.194h-13.864a2.644 2.644 0 0 0-2.64 2.64v26.407a2.644 2.644 0 0 0 2.64 2.641h18.485a2.644 2.644 0 0 0 2.64-2.64v-21.786a.66.66 0 0 0-.193-.467z"/><path id="ujqpb" d="M1370.378 4214.648h-14.523a.66.66 0 1 0 0 1.32h14.523a.66.66 0 1 0 0-1.32z"/><path id="ujqpc" d="M1370.378 4210.687h-14.523a.66.66 0 1 0 0 1.32h14.523a.66.66 0 1 0 0-1.32z"/><path id="ujqpd" d="M1370.378 4218.609h-14.523a.66.66 0 1 0 0 1.32h14.523a.66.66 0 1 0 0-1.32z"/><path id="ujqpe" d="M1363.777 4222.57h-7.922a.66.66 0 1 0 0 1.32h7.922a.66.66 0 1 0 0-1.32z"/><path id="ujqpf" d="M1361.796 4207.386c0 .365.296.66.66.66h7.922a.66.66 0 1 0 0-1.32h-7.921a.66.66 0 0 0-.66.66z"/><path id="ujqpg" d="M1357.175 4206.726h-1.32a.66.66 0 1 0 0 1.32h.66a.66.66 0 1 0 1.32 0v-.121c.767-.274 1.32-1 1.32-1.86 0-1.092-.888-1.98-1.98-1.98a.661.661 0 0 1 0-1.32h1.32a.66.66 0 1 0 0-1.32h-.66a.66.66 0 1 0-1.32 0v.121c-.767.273-1.32 1-1.32 1.859 0 1.092.888 1.98 1.98 1.98a.661.661 0 0 1 0 1.32z"/></defs><g><g transform="translate(-1351 -4196)"><g><g><g><use fill="#ffbd67" xlink:href="#ujqpa"/></g><g><use fill="#ffbd67" xlink:href="#ujqpb"/></g><g><use fill="#ffbd67" xlink:href="#ujqpc"/></g><g><use fill="#ffbd67" xlink:href="#ujqpd"/></g><g><use fill="#ffbd67" xlink:href="#ujqpe"/></g><g><use fill="#ffbd67" xlink:href="#ujqpf"/></g><g><use fill="#ffbd67" xlink:href="#ujqpg"/></g></g></g></g></g></svg>