<svg xmlns="http://www.w3.org/2000/svg" xmlns:xlink="http://www.w3.org/1999/xlink" width="30" height="30" viewBox="0 0 30 30"><defs><path id="epqca" d="M1398.357 2346.937l-1.309-1.308-1.744 1.744 1.308 1.308zm-3.332-11.518h1.85v-2.467h-1.85zm-6.067-2.784l1.745 1.745 1.308-1.309-1.744-1.744zm8.842 7.224h1.85v-2.467h-1.85zm-6.166 11.966h1.85v-2.467h-1.85zm-11.72-9.499h1.85v-2.467h-1.85zm4.918 2.867l-1.308-1.309-1.744 1.745 1.308 1.308z"/><path id="epqcb" d="M1389.956 2355.063c-7.226 0-13.106-5.88-13.106-13.106 0-7.227 5.88-13.107 13.106-13.107 7.227 0 13.107 5.88 13.107 13.107 0 7.226-5.88 13.106-13.107 13.106zm10.576-23.682a14.86 14.86 0 0 0-10.576-4.381c-3.995 0-7.75 1.556-10.575 4.38a14.859 14.859 0 0 0-4.381 10.577c0 3.994 1.556 7.75 4.38 10.575a14.858 14.858 0 0 0 10.576 4.38 14.86 14.86 0 0 0 10.576-4.38 14.858 14.858 0 0 0 4.381-10.575c0-3.995-1.556-7.751-4.38-10.576z"/><path id="epqcc" d="M1389.956 2344.523a2.57 2.57 0 0 1-2.567-2.567 2.57 2.57 0 0 1 2.567-2.567 2.57 2.57 0 0 1 2.567 2.567 2.57 2.57 0 0 1-2.567 2.567zm0-6.985a4.423 4.423 0 0 0-4.418 4.418 4.423 4.423 0 0 0 4.418 4.418 4.422 4.422 0 0 0 4.418-4.418 4.423 4.423 0 0 0-4.418-4.418z"/></defs><g><g transform="translate(-1375 -2327)"><g><use fill="#ff3bde" xlink:href="#epqca"/></g><g><use fill="#ff3bde" xlink:href="#epqcb"/></g><g><use fill="#ff3bde" xlink:href="#epqcc"/></g></g></g></svg>