<svg xmlns="http://www.w3.org/2000/svg" xmlns:xlink="http://www.w3.org/1999/xlink" width="30" height="26" viewBox="0 0 30 26"><defs><path id="ta3ja" d="M491.815 2181.85h.11a15.57 15.57 0 0 1 3.17.36 9.26 9.26 0 0 0-.074 7.376 15.533 15.533 0 0 1-3.144.291c-3.905-.033-7.533-1.48-10.315-4.094 2.786-2.543 6.392-3.933 10.253-3.933zm10.404 4.121a14.99 14.99 0 0 1-5.385 3.14 7.404 7.404 0 0 1 .062-6.386 15.118 15.118 0 0 1 5.323 3.246zm-25.874 5.275l3.918-4.147a16.852 16.852 0 0 0 4.779 3.169 17.144 17.144 0 0 0 6.819 1.46c.052 0 .104-.002.158 0 2.339 0 4.604-.461 6.732-1.37a16.866 16.866 0 0 0 5.451-3.728l.623-.636-.612-.647a17.097 17.097 0 0 0-12.398-5.347c-2.354 0-4.631.463-6.768 1.377a16.792 16.792 0 0 0-4.775 3.08l-3.927-4.155-1.345 1.27 3.961 4.193.009.009-3.97 4.2z"/><path id="ta3jb" d="M488.21 2203.415h-.11a15.573 15.573 0 0 1-3.17-.36 9.26 9.26 0 0 0 .074-7.376 15.532 15.532 0 0 1 3.144-.29c3.905.032 7.533 1.479 10.315 4.093-2.786 2.543-6.393 3.933-10.253 3.933zm-10.405-4.121a14.99 14.99 0 0 1 5.385-3.14 7.404 7.404 0 0 1-.062 6.387 15.118 15.118 0 0 1-5.323-3.247zm23.258.207l-.008-.01 3.97-4.2-1.345-1.271-3.918 4.146a16.851 16.851 0 0 0-4.78-3.169 17.145 17.145 0 0 0-6.818-1.46 17.038 17.038 0 0 0-6.89 1.37 16.867 16.867 0 0 0-5.451 3.728l-.623.637.612.646a17.097 17.097 0 0 0 12.398 5.347c2.354 0 4.63-.463 6.768-1.377a16.795 16.795 0 0 0 4.775-3.08l3.927 4.156 1.345-1.271z"/></defs><g><g transform="translate(-475 -2180)"><g><use fill="#946eff" xlink:href="#ta3ja"/></g><g><use fill="#946eff" xlink:href="#ta3jb"/></g></g></g></svg>