<svg xmlns="http://www.w3.org/2000/svg" xmlns:xlink="http://www.w3.org/1999/xlink" width="100" height="28" viewBox="0 0 100 28"><defs><path id="vccda" d="M464.165 6719.753c.296-1.747 1.302-2.901 2.782-2.901 1.54 0 2.576 1.125 2.783 2.9zm3.256 9.71c3.197 0 5.418-1.302 6.957-3.256l-2.346-1.983c-1.804 1.758-6.578 2.805-7.779-1.6h10.717c.03-.384.03-.799.03-1.154 0-4.707-2.546-8.763-8.082-8.763-4.737 0-8.082 3.7-8.082 8.378 0 5.033 3.552 8.378 8.585 8.378zm-21.297-.385h5.625v-4.973c0-3.7 1.658-5.388 4.59-5.388h.473v-5.921c-2.665-.119-4.145 1.302-5.063 3.493v-3.227h-5.625zm-12.178-4.381c-1.983 0-3.404-1.658-3.404-3.612 0-1.983 1.302-3.612 3.345-3.612 1.984 0 3.405 1.658 3.405 3.612 0 1.984-1.303 3.612-3.346 3.612zm-.059 4.766c5.151 0 8.881-3.819 8.881-8.378 0-4.618-3.7-8.378-8.822-8.378-5.151 0-8.881 3.819-8.881 8.378 0 4.618 3.7 8.378 8.822 8.378zm-15.11-.059c1.57 0 2.902-.355 3.909-.918v-4.41c-.681.325-1.392.532-2.132.532-1.036 0-1.54-.474-1.54-1.598v-5.418h3.731v-4.53h-3.73v-4.056l-5.625 2.31v1.746h-1.895v4.53h1.895v6.513c0 3.819 2.013 5.3 5.388 5.3zm-42.53 6.494zm9.849-12.086v-.489a3.839 3.839 0 1 1 0-7.63v-7.252h-6.682v15.336c0 6.422-3.31 7.53-4.414 7.914l1.248 4.207c6.624-.693 9.848-7.113 9.848-12.086zm-2.99-4.304a2.56 2.56 0 1 0 5.12 0 2.56 2.56 0 0 0-5.12 0zm17.78 9.926c5.033 0 8.378-2.517 8.378-6.75 0-3.938-2.96-5.477-7.727-6.513-2.872-.652-3.582-1.066-3.582-2.013 0-.8.68-1.392 2.072-1.392 1.836 0 3.908.71 5.803 2.043l2.872-4.056c-2.25-1.806-5.004-2.753-8.527-2.753-4.973 0-8.023 2.783-8.023 6.631 0 4.323 3.405 5.566 7.816 6.573 2.813.65 3.493 1.125 3.493 1.983 0 .947-.828 1.48-2.368 1.48-2.398 0-4.678-.858-6.72-2.487l-3.198 3.82c2.546 2.279 6.04 3.434 9.71 3.434z"/><linearGradient id="vccdb" x1="489.45" x2="371.71" y1="6735.9" y2="6708" gradientUnits="userSpaceOnUse"><stop offset="0" stop-color="#8c53ff"/><stop offset="1" stop-color="#70a4ff"/></linearGradient></defs><g><g transform="translate(-375 -6708)"><use fill="url(#vccdb)" xlink:href="#vccda"/></g></g></svg>