<svg xmlns="http://www.w3.org/2000/svg" xmlns:xlink="http://www.w3.org/1999/xlink" width="56" height="57" viewBox="0 0 56 57"><defs><path id="dnvoa" d="M971.369 808.998a16.335 16.335 0 0 0-.79-2.105 1.257 1.257 0 0 0-.111-.268 22.13 22.13 0 0 0-.462-.937 21.136 21.136 0 0 0-1.217-2.02 46.567 46.567 0 0 0-.706-.95 17.224 17.224 0 0 0-.754-.9 17.842 17.842 0 0 0-1.656-1.655 17.229 17.229 0 0 0-.9-.754 46.623 46.623 0 0 0-.95-.706 21.139 21.139 0 0 0-2.02-1.217 22.118 22.118 0 0 0-.936-.463 1.257 1.257 0 0 0-.268-.11 16.339 16.339 0 0 0-2.106-.79 9.713 9.713 0 0 1 8.872-5.732 9.733 9.733 0 0 1 9.736 9.735 9.713 9.713 0 0 1-5.732 8.872zm-4.004-28.343c-9.26 0-16.989 6.438-18.972 15.09.353-.073.706-.146 1.058-.206-.352.06-.705.133-1.058.219-8.653 1.97-15.103 9.711-15.103 18.972 0 10.758 8.714 19.471 19.471 19.471 9.261 0 17.002-6.45 18.973-15.102.085-.353.158-.706.219-1.059-.06.353-.134.706-.207 1.059 8.652-1.984 15.09-9.712 15.09-18.973 0-10.757-8.713-19.47-19.471-19.47z"/><path id="dnvob" d="M973.28 817.396c.005-.036.013-.079.016-.114a2.08 2.08 0 0 0 .034-.308c.037-.355.075-.711.084-1.039.027-.392.04-.797.04-1.202 0-1.74-.23-3.461-.657-5.123 3.38-1.932 5.527-5.537 5.527-9.486 0-6.042-4.915-10.957-10.956-10.957-3.95 0-7.554 2.148-9.486 5.529a20.64 20.64 0 0 0-5.123-.66c-.405 0-.81.015-1.16.038-.356.013-.699.046-1.076.086-.014 0-.024.004-.037.004h-.009a2.28 2.28 0 0 0-.233.026c-.05.006-.099.015-.149.021 2.489-7.353 9.34-12.348 17.273-12.348 10.069 0 18.26 8.192 18.26 18.26 0 7.932-4.995 14.784-12.348 17.273zm-13.03-21.957a8.53 8.53 0 0 1 7.118-3.837c4.697 0 8.521 3.824 8.521 8.522a8.53 8.53 0 0 1-3.837 7.118c-.052-.132-.112-.263-.168-.396-.056-.133-.103-.271-.166-.404a1.745 1.745 0 0 0-.14-.329c-.159-.343-.32-.687-.48-.97a17.4 17.4 0 0 0-1.292-2.151c-.243-.367-.503-.72-.75-1.01l-.013-.017a.833.833 0 0 1-.03-.04c-.005-.008-.013-.015-.02-.024-.24-.314-.492-.624-.746-.888a18.55 18.55 0 0 0-1.728-1.731c-.006-.006-.012-.013-.02-.019l-.042-.037c-.31-.29-.625-.548-.898-.754l-.01-.007c-.011-.01-.02-.016-.03-.026-.255-.197-.52-.39-.792-.588-.068-.047-.136-.107-.204-.154-.003 0-.004-.002-.006-.003l-.007-.005c-.016-.012-.035-.022-.052-.034a16.951 16.951 0 0 0-2.06-1.24l-.006-.003a1.341 1.341 0 0 0-.025-.015l-.042-.02c-.29-.16-.583-.297-.81-.4-.046-.021-.09-.044-.135-.065-.008-.004-.02-.003-.027-.007a2.95 2.95 0 0 0-.299-.133c-.13-.062-.258-.106-.388-.161-.14-.053-.279-.117-.417-.172zm-7.491 37.554c-10.07 0-18.261-8.191-18.261-18.26 0-8.577 5.823-15.894 14.16-17.793l.01-.002.008-.001c.296-.07.589-.13.874-.182l.157-.028c.268-.043.542-.085.82-.118.01-.001.018-.008.028-.01l.05-.007c.042 0 .125-.006.166-.01.3-.031.599-.065.95-.078 2.102-.148 4.319.134 6.423.78.208.066.408.138.61.208.151.053.302.097.461.158.287.111.585.232.874.364.076.036.202.091.267.108.287.134.574.278.847.418l.052.027c.556.293 1.114.63 1.647.982.08.055.156.098.239.156.296.217.594.435.903.672.273.22.545.436.83.696a16.3 16.3 0 0 1 1.56 1.565c.242.262.46.535.687.82.193.25.37.493.541.727.041.06.085.108.127.17.426.629.812 1.267 1.14 1.893.15.288.3.588.439.888l.002.004.039.083c.017.055.04.109.063.162.003.006.002.01.004.015a15.229 15.229 0 0 1 .735 1.959l.002.002c.535 1.741.807 3.548.807 5.372 0 .348-.011.699-.035 1.08-.012.309-.044.608-.076.907l-.004.04c0 .004.003.01.002.014l-.007.066-.019.126a16.075 16.075 0 0 1-.328 1.852v.005l-.003.012c-1.898 8.335-9.215 14.158-17.791 14.158zm14.609-53.565c-9.46 0-17.56 6.273-19.971 15.334-9.062 2.405-15.334 10.502-15.334 19.97 0 11.412 9.284 20.696 20.696 20.696 9.467 0 17.566-6.27 19.97-15.333 9.061-2.412 15.334-10.51 15.334-19.971 0-11.412-9.284-20.696-20.695-20.696z"/><path id="dnvod" d="M951.57 813.34h-7.363v-4.908h7.362zm9.816 2.455v4.908h-7.363v-4.908zm1.227-7.363c.679 0 1.227-.548 1.227-1.227 0-.678-.548-1.227-1.227-1.227h-8.59v-3.68c0-.68-.548-1.228-1.227-1.228s-1.227.548-1.227 1.227v3.681h-8.59c-.678 0-1.226.549-1.226 1.227v7.363c0 .679.548 1.227 1.227 1.227h8.59v4.908h-8.59c-.68 0-1.227.549-1.227 1.227 0 .68.548 1.227 1.227 1.227h8.59v3.682a1.226 1.226 0 1 0 2.454 0v-3.682h8.589c.679 0 1.227-.548 1.227-1.227v-7.362c0-.679-.548-1.227-1.227-1.227h-8.59v-4.909z"/><linearGradient id="dnvoc" x1="960.06" x2="960.06" y1="779.43" y2="835.43" gradientUnits="userSpaceOnUse"><stop offset="0" stop-color="#8c53ff"/><stop offset="1" stop-color="#70a4ff"/></linearGradient><linearGradient id="dnvoe" x1="952.8" x2="952.8" y1="801.07" y2="828.07" gradientUnits="userSpaceOnUse"><stop offset="0" stop-color="#8c53ff"/><stop offset="1" stop-color="#70a4ff"/></linearGradient></defs><g><g transform="translate(-932 -779)"><g><use fill="#dbe6ff" xlink:href="#dnvoa"/></g><g><g><use fill="url(#dnvoc)" xlink:href="#dnvob"/></g><g><use fill="url(#dnvoe)" xlink:href="#dnvod"/></g></g></g></g></svg>