<svg xmlns="http://www.w3.org/2000/svg" xmlns:xlink="http://www.w3.org/1999/xlink" width="29" height="30" viewBox="0 0 29 30"><defs><path id="zsl4a" d="M443.68 4307.629a.66.66 0 0 1-.66.66h-4.622a2.643 2.643 0 0 1-2.64-2.64 2.643 2.643 0 0 1 2.64-2.642h4.621a.66.66 0 0 1 .66.66zm-1.32 5.941c0 .728-.593 1.32-1.321 1.32h-22.446c-.728 0-1.32-.592-1.32-1.32v-15.844c0-.728.592-1.32 1.32-1.32h22.446c.728 0 1.32.592 1.32 1.32v3.961h-3.96a3.965 3.965 0 0 0-3.962 3.961 3.965 3.965 0 0 0 3.961 3.961h3.961zm-7.822-24.91a1.294 1.294 0 0 1 1.774.481v.002l-10.206 5.943H423.5zm3.082 2.767l-6.283 3.659h-2.607l8.239-4.797zm2.095 3.659h-5.754l4.315-2.513zm3.964 6.723v-4.083a2.635 2.635 0 0 0-2.43-2.62l-3.791-6.621a2.609 2.609 0 0 0-3.585-.966l-12.997 7.567h-2.283a2.643 2.643 0 0 0-2.64 2.64v15.844a2.643 2.643 0 0 0 2.64 2.64h22.446a2.643 2.643 0 0 0 2.64-2.64v-4.082c.767-.274 1.32-1 1.32-1.86v-3.96c0-.86-.553-1.586-1.32-1.86z"/><path id="zsl4b" d="M438.398 4304.328c-.728 0-1.32.592-1.32 1.32 0 .728.592 1.32 1.32 1.32.728 0 1.32-.592 1.32-1.32 0-.728-.592-1.32-1.32-1.32z"/></defs><g><g transform="translate(-416 -4287)"><g><g><g><use fill="#ff3bde" xlink:href="#zsl4a"/></g><g><use fill="#ff3bde" xlink:href="#zsl4b"/></g></g></g></g></g></svg>