<svg xmlns="http://www.w3.org/2000/svg" xmlns:xlink="http://www.w3.org/1999/xlink" width="30" height="18" viewBox="0 0 30 18"><defs><path id="ykdia" d="M539.74 2411.93h-19.372l-.708-2.467h20.774zm-9.696-14.08c1.37 0 2.681.26 3.887.732-.565.434-1.089.912-1.567 1.428a8.81 8.81 0 0 0-2.32-.31c-4.56 0-8.325 3.473-8.789 7.912h-1.858c.47-5.461 5.065-9.762 10.647-9.762zm10.247 7.652c.201.678.337 1.384.4 2.11h-2.297a3.333 3.333 0 0 1 1.897-2.11zm-1.657-3.315c.37.5.698 1.032.977 1.593a5.135 5.135 0 0 0-3.12 3.832h-1.87a7.005 7.005 0 0 1 4.013-5.425zm-2.839-2.653c.56.358 1.083.767 1.565 1.22a8.86 8.86 0 0 0-4.603 6.858H530.9a10.735 10.735 0 0 1 4.896-8.078zm-6.362 5.775c-.2.749-.333 1.52-.392 2.303h-2.15a3.296 3.296 0 0 1 2.542-2.303zm.681-1.906l-.07-.002a5.144 5.144 0 0 0-5.051 4.211h-1.874c.454-3.416 3.386-6.061 6.925-6.061.352 0 .702.028 1.047.08-.372.563-.7 1.156-.977 1.772zm14.886 4.21h-2.453c-.475-6.484-5.901-11.613-12.503-11.613s-12.028 5.13-12.504 11.612h-2.453v1.85h2.648l1.24 4.318h22.167l1.215-4.317H545z"/></defs><g><g transform="translate(-515 -2396)"><use fill="#ffb444" xlink:href="#ykdia"/></g></g></svg>